<svg version="1.1" id="Layer_1" xmlns="http://www.w3.org/2000/svg" xmlns:xlink="http://www.w3.org/1999/xlink" x="0px" y="0px"
	 width="100%" viewBox="0 0 240 240" enable-background="new 0 0 240 240" xml:space="preserve">
<path fill="#000000" opacity="1.000000" stroke="none" 
	d="
M122.274391,18.027796 
	C125.718277,17.541080 127.966705,18.686449 129.021515,21.571705 
	C129.859070,23.862724 128.954773,25.863449 127.176765,27.382063 
	C124.828621,29.387659 122.557838,28.242210 120.236465,27.115042 
	C111.062340,22.660429 100.444206,25.941841 96.437065,34.402451 
	C95.079887,37.267990 94.612541,40.249691 96.415108,42.987988 
	C98.408310,46.015858 101.227692,44.235832 103.695129,43.669971 
	C119.316483,40.087536 130.502625,45.731976 138.139297,61.223663 
	C139.465393,63.913780 140.685547,66.371864 143.399445,68.232712 
	C147.101242,70.770935 146.581726,74.395935 142.553802,77.062515 
	C140.011154,78.745796 137.135544,80.094971 139.307999,83.985390 
	C141.855652,84.381660 143.471466,82.646111 144.126663,81.050888 
	C146.010620,76.463921 149.672272,73.227448 152.264221,69.214355 
	C154.605850,65.588821 158.695526,64.539276 162.677429,66.791893 
	C163.967438,67.521675 165.209564,68.707169 166.572632,68.873695 
	C173.111099,69.672523 176.868546,73.017036 177.510147,79.706284 
	C177.681839,81.496315 179.431091,81.851677 180.700592,82.567451 
	C189.032181,87.265015 191.489960,95.035431 187.286133,103.722176 
	C186.420212,105.511536 185.384949,107.253685 184.196960,108.845345 
	C181.567337,112.368469 181.590027,115.857033 183.821045,119.532112 
	C185.286575,121.946213 186.534393,124.445145 187.482758,127.156609 
	C190.046097,134.485397 185.322021,141.974197 177.408478,141.090622 
	C170.973465,140.372147 167.991028,142.858109 165.021637,147.781998 
	C161.437439,153.725403 156.338547,158.243607 149.519684,160.542435 
	C146.392990,161.596542 144.467804,163.350372 144.075592,167.300323 
	C143.490067,173.197189 136.040451,178.396881 130.578125,175.844879 
	C119.703163,170.764069 107.627243,168.451630 97.613327,161.500717 
	C94.835106,159.572281 94.904671,159.472061 91.230492,159.621368 
	C91.663551,163.386581 95.846992,164.082870 97.549706,166.982590 
	C92.343086,167.216736 92.170364,167.116959 84.678497,159.557785 
	C85.506958,163.718979 88.499489,165.660294 90.954025,168.222031 
	C86.298698,168.640717 84.620865,166.754196 82.446129,161.755661 
	C80.458748,157.187744 85.254013,154.644638 83.707718,149.835083 
	C87.396263,151.913940 87.329391,155.688889 90.677742,156.612122 
	C90.391869,152.283066 88.124451,148.947815 86.766182,145.311646 
	C85.486824,141.886703 83.909950,138.516205 83.700058,134.813217 
	C83.566109,132.450104 82.688179,130.718811 80.831642,129.294266 
	C78.652756,127.622375 76.906815,125.279015 76.512497,122.730255 
	C75.825005,118.286400 73.273155,116.669098 69.279419,115.963326 
	C67.613579,115.668930 66.093216,114.551384 63.466389,113.320724 
	C67.457802,112.049240 70.589706,113.123268 73.544434,111.287643 
	C69.562050,109.687202 66.641060,106.430557 62.212994,106.316788 
	C60.797398,106.280411 59.217960,105.742958 58.860641,104.504158 
	C57.406078,99.461311 52.496670,97.979538 49.293510,94.765633 
	C41.022953,86.467323 40.042091,76.602921 43.700268,66.130371 
	C46.892197,56.992577 54.130917,52.564182 63.463760,51.719418 
	C66.959297,51.403015 67.821655,49.355862 68.700500,46.725357 
	C71.555618,38.179592 76.088264,30.761332 83.178963,24.995293 
	C93.249680,16.805960 105.027237,17.018864 116.949081,18.010004 
	C118.605530,18.147715 120.212364,18.598764 122.274391,18.027796 
M150.677429,86.084236 
	C149.391113,89.436623 148.104782,92.789009 146.636887,96.614655 
	C153.040024,98.615868 156.047256,104.024994 158.843536,109.365837 
	C162.071182,108.200371 162.712616,106.173615 162.631027,103.652802 
	C162.555695,101.325699 162.652710,99.034950 164.017273,96.959328 
	C164.813492,95.748177 162.449921,81.315254 161.370697,80.339027 
	C160.896515,79.910095 160.273163,79.394356 159.698746,79.370506 
	C156.882858,79.253601 154.608643,77.329773 151.773117,76.793312 
	C151.031952,79.815132 152.391037,82.738525 150.677429,86.084236 
M64.562714,78.326302 
	C59.731529,83.957199 58.545509,92.019241 62.921574,95.245125 
	C66.219833,97.676460 68.277969,100.161621 68.386955,104.158127 
	C73.214088,104.164963 77.639549,103.161079 78.704857,98.503410 
	C79.472694,95.146400 77.794716,91.135231 74.686119,89.129074 
	C71.793007,87.261971 70.721504,85.241280 70.530228,81.929070 
	C70.360962,78.997978 69.692352,75.447891 64.562714,78.326302 
M134.645721,75.275597 
	C134.633545,74.611534 134.607880,73.947411 134.611267,73.283424 
	C134.650497,65.586113 128.130508,58.793243 120.459785,58.593197 
	C118.955132,58.553955 117.341858,58.595299 116.639114,60.283760 
	C116.167015,61.418072 116.893120,62.410755 117.879982,62.633804 
	C123.510941,63.906528 124.135147,68.119247 124.558296,72.884003 
	C124.762283,75.181038 125.131950,78.387878 127.667824,79.229248 
	C130.410141,80.139122 132.629715,78.038689 134.645721,75.275597 
z"/>
<path fill="#000000" opacity="1.000000" stroke="none" 
	d="
M202.232300,205.744522 
	C207.189606,206.701859 208.193710,208.710098 205.930557,212.521942 
	C204.242477,215.365173 201.579376,217.025162 198.581482,218.248917 
	C196.709808,219.012924 194.407501,219.898819 195.796692,222.468887 
	C197.019501,224.731155 199.219147,223.841644 201.120880,223.071167 
	C204.360306,221.758713 205.784897,218.130203 209.131927,216.428741 
	C207.494736,225.528473 197.282745,229.295105 189.755508,223.682907 
	C189.031845,224.073776 188.159515,224.489670 187.343796,224.996628 
	C185.395935,226.207184 183.478088,225.986252 181.749435,224.697983 
	C180.113022,223.478439 179.858612,221.717438 180.250626,219.752731 
	C180.621384,217.894638 181.871277,215.495544 179.293213,214.522919 
	C177.049332,213.676361 175.742630,215.861832 174.505814,217.375351 
	C173.458557,218.656860 172.621704,220.113266 171.721771,221.511612 
	C169.880920,224.371887 168.309326,227.405441 165.011841,222.545624 
	C163.681366,220.584793 161.511658,221.583282 159.722672,222.921021 
	C156.710724,225.173248 153.563599,228.416946 149.823349,224.281982 
	C147.266113,221.454849 149.074097,214.614639 153.009613,211.928207 
	C154.686874,210.783279 156.133667,209.533127 157.464508,208.021942 
	C158.967682,206.315079 160.955338,205.182571 163.232880,206.231186 
	C165.781418,207.404602 166.011414,209.804199 165.489456,212.231506 
	C165.080994,214.130951 164.422104,215.976532 163.801498,218.095200 
	C167.259293,218.350906 167.724091,215.899414 168.456406,213.800888 
	C169.423950,211.028244 170.405563,208.380630 173.941208,211.260147 
	C175.497070,212.527267 176.337341,210.917435 177.435623,210.441757 
	C179.723663,209.450760 182.026688,207.974762 184.440445,209.855179 
	C186.909073,211.778336 186.867737,214.388321 185.929184,217.116440 
	C185.454086,218.497391 184.676819,219.914688 186.259323,221.539124 
	C189.121765,221.039810 189.595749,218.402328 190.584396,216.269714 
	C192.914124,211.244202 196.124023,207.182877 202.232300,205.744522 
M156.696228,221.391434 
	C159.505081,218.890244 157.225540,217.660355 155.607635,215.959930 
	C153.471603,220.097839 153.471603,220.097839 156.696228,221.391434 
M198.270065,211.672668 
	C197.795898,212.483398 197.042603,213.267731 198.239700,214.437668 
	C200.360947,213.645859 202.570862,212.981659 201.697998,209.620758 
	C200.195694,209.603531 199.400726,210.366531 198.270065,211.672668 
z"/>
<path fill="#000000" opacity="1.000000" stroke="none" 
	d="
M73.030006,225.913635 
	C68.530998,227.157608 67.181305,224.506775 66.913445,221.245346 
	C66.597206,217.394867 68.024475,213.952774 71.317062,211.760010 
	C73.000954,210.638580 74.475540,209.486771 75.753685,207.903198 
	C77.193581,206.119217 79.244400,205.161011 81.510483,206.268265 
	C84.030235,207.499481 84.305191,209.841217 83.683746,212.268341 
	C83.198303,214.164337 82.445145,215.991806 81.696976,218.183578 
	C84.429947,218.771774 85.505486,217.159546 86.385223,215.394012 
	C87.123978,213.911392 87.602440,212.298462 88.349617,210.820831 
	C89.112328,209.312500 90.122154,207.633438 92.141785,208.567871 
	C94.410820,209.617706 93.039993,211.380234 92.483887,212.841293 
	C91.621552,215.106873 90.279617,217.265320 91.015785,220.152756 
	C95.194191,220.105087 96.004463,216.660934 97.538765,214.208832 
	C98.622368,212.477066 98.824310,209.222244 101.592598,210.291656 
	C104.256943,211.320908 102.348793,214.042068 102.067734,216.027802 
	C101.887726,217.299606 101.112595,218.513123 101.670715,219.922287 
	C104.603867,220.411606 104.489143,216.906464 107.352615,216.200394 
	C107.708626,219.775238 105.513954,222.000595 103.215668,223.234528 
	C99.242958,225.367432 97.269051,228.728714 95.369408,232.482376 
	C93.887138,235.411316 92.198509,238.543640 88.119919,238.369965 
	C86.511482,238.301468 85.160309,237.418747 84.935394,235.719727 
	C84.396126,231.646179 87.430138,229.913727 90.210144,228.043411 
	C91.143509,227.415466 92.367500,227.093735 92.747292,225.827713 
	C86.289185,219.816071 79.829796,220.176910 73.030006,225.913635 
M74.719521,221.404556 
	C77.497719,219.038315 75.645042,217.979889 73.139610,216.544495 
	C72.821587,218.676102 69.422211,220.747040 74.719521,221.404556 
z"/>
<path fill="#000000" opacity="1.000000" stroke="none" 
	d="
M146.496246,190.163147 
	C148.186417,190.928116 149.900101,190.133148 151.052902,191.402390 
	C145.094223,203.538422 145.094223,203.538422 148.027328,207.431061 
	C141.631088,207.884216 139.175552,212.764160 136.148315,217.079086 
	C133.620239,220.682495 134.843002,222.566422 138.758881,223.318146 
	C141.173264,223.781616 143.623108,224.060471 146.274902,224.454575 
	C145.970276,228.325684 143.450424,229.205002 140.441757,228.859726 
	C138.166306,228.598572 135.892654,227.856277 133.752655,226.994308 
	C130.880508,225.837448 128.166595,224.979294 125.209435,226.764816 
	C124.422478,227.240005 123.241852,227.381607 122.310158,227.237000 
	C119.847473,226.854706 116.851234,226.308701 116.837997,223.295914 
	C116.824234,220.165329 119.563423,219.645950 122.309464,219.638107 
	C129.355713,219.617966 132.797928,216.870560 134.320007,210.240540 
	C133.331955,208.514328 131.063095,209.866348 129.804565,208.314987 
	C129.777679,205.316635 132.441299,204.994812 134.268539,204.873093 
	C139.458130,204.527405 140.992447,200.593445 142.926544,196.944061 
	C143.488922,195.882919 143.946274,194.464401 142.684753,193.806473 
	C139.009354,191.889587 135.203110,189.943909 130.916748,190.362976 
	C127.007385,190.745148 126.912491,194.229034 126.199310,197.106155 
	C126.098259,197.513824 125.615234,197.826828 125.313301,198.178650 
	C121.449890,195.270569 122.048317,190.822037 126.635170,188.726562 
	C130.592026,186.918915 134.778900,187.388519 138.886475,188.170990 
	C141.329391,188.636353 143.713882,189.408585 146.496246,190.163147 
z"/>
<path fill="#000000" opacity="1.000000" stroke="none" 
	d="
M67.736198,193.583252 
	C63.660587,204.181656 60.096313,214.549301 58.025963,225.365601 
	C57.746532,226.825470 57.795273,228.602356 55.628429,228.434555 
	C53.881897,228.299316 53.103397,226.984558 52.833504,225.387177 
	C52.399483,222.818375 53.240364,220.436340 54.097794,218.097733 
	C56.671852,211.077133 59.331432,204.087906 61.909882,197.068893 
	C62.405643,195.719360 63.466564,194.461502 62.777447,192.561966 
	C59.099159,191.732605 55.030674,193.701828 51.283909,191.818970 
	C54.418625,186.705536 68.133453,185.586823 79.217995,189.496902 
	C76.402962,193.791336 71.238953,190.812286 67.736198,193.583252 
z"/>
<path fill="#000000" opacity="1.000000" stroke="none" 
	d="
M142.960327,48.775951 
	C143.844971,52.698952 139.667313,55.147621 140.792084,59.185905 
	C137.275162,52.557404 133.088531,46.872387 125.996552,43.551052 
	C137.181595,37.773521 139.967377,41.303886 142.960327,48.775951 
z"/>
</svg>